<svg width="428" height="245" viewBox="0 0 428 245" fill="none" xmlns="http://www.w3.org/2000/svg">
<path d="M463.96 70.2929C468.291 73.2359 467.413 87.221 463.962 112.025L-167.846 112.025L-212.078 81.6784C-194.845 79.4114 -176.989 73.2348 -162.585 68.0771C-147.459 62.6607 -135.129 55.7526 -121.778 49.3583C-101.811 39.7952 -79.9788 46.6184 -61.7616 52.3118L-60.8746 52.5889C-46.9381 56.9413 -32.9243 63.6012 -16.2829 65.535C-5.83286 66.7493 7.68326 63.6269 17.3719 61.5229C55.1411 53.3207 87.0733 38.8457 128.958 36.4953C149.76 35.3279 169.035 41.5781 183.578 47.7708C198.987 54.3323 212.96 61.8335 226.627 69.2558C235.791 74.2319 246.515 77.0056 260.961 75.6623C275.757 74.2866 289.979 71.5145 303.796 68.3985C323.478 63.9598 342.385 58.988 363.144 56.0558C380.041 53.6691 400.746 49.7782 417.881 51.6657C437.705 53.8495 452.791 62.702 463.96 70.2929Z" fill="url(#paint0_linear_26_58)"/>
<path d="M490.96 149.529C495.291 146.586 494.413 132.601 490.962 107.797L-140.846 107.797L-185.078 138.144C-167.845 140.411 -149.989 146.587 -135.585 151.745C-120.459 157.161 -108.129 164.07 -94.7781 170.464C-74.8108 180.027 -52.9788 173.204 -34.7616 167.51L-33.8746 167.233C-19.9381 162.881 -5.92433 156.221 10.7171 154.287C21.1671 153.073 34.6833 156.195 44.3719 158.299C82.1411 166.501 114.073 180.976 155.958 183.327C176.76 184.494 196.035 178.244 210.578 172.051C225.987 165.49 239.96 157.989 253.627 150.566C262.791 145.59 273.515 142.817 287.961 144.16C302.757 145.536 316.979 148.308 330.796 151.424C350.478 155.862 369.385 160.834 390.144 163.766C407.041 166.153 427.746 170.044 444.881 168.156C464.705 165.973 479.791 157.12 490.96 149.529Z" fill="url(#paint1_linear_26_58)"/>
<defs>
<linearGradient id="paint0_linear_26_58" x1="478.735" y1="75.8123" x2="145.215" y2="-230.593" gradientUnits="userSpaceOnUse">
<stop stop-color="#0A62C7"/>
<stop offset="1" stop-color="#459741"/>
</linearGradient>
<linearGradient id="paint1_linear_26_58" x1="505.735" y1="144.01" x2="172.215" y2="450.415" gradientUnits="userSpaceOnUse">
<stop stop-color="#0A62C7"/>
<stop offset="1" stop-color="#459741"/>
</linearGradient>
</defs>
</svg>
